HIERARCHY
ROOT Hips
{
 OFFSET 0.000000 0.000000 0.000000
 CHANNELS 6 Xposition Yposition Zposition Yrotation Xrotation Zrotation
 JOINT Chest
 {
  OFFSET 0.000000 9.588913 -0.003946
  CHANNELS 3 Yrotation Xrotation Zrotation
  JOINT Chest2
  {
   OFFSET 0.000000 9.541882 0.008053
   CHANNELS 3 Yrotation Xrotation Zrotation
   JOINT Chest3
   {
    OFFSET 0.000000 9.501360 0.000000
    CHANNELS 3 Yrotation Xrotation Zrotation
    JOINT Chest4
    {
     OFFSET 0.000000 9.491660 0.000000
     CHANNELS 3 Yrotation Xrotation Zrotation
     JOINT Neck
     {
      OFFSET 0.000000 14.331917 0.000000
      CHANNELS 3 Yrotation Xrotation Zrotation
      JOINT Head
      {
       OFFSET 0.000000 8.884799 0.017034
       CHANNELS 3 Yrotation Xrotation Zrotation
       End Site
       {
        OFFSET 0.000000 16.896195 0.008993
       }
      }
     }
     JOINT RightCollar
     {
      OFFSET -2.923010 9.499495 0.000000
      CHANNELS 3 Yrotation Xrotation Zrotation
      JOINT RightShoulder
      {
       OFFSET -13.795216 0.000000 0.000000
       CHANNELS 3 Yrotation Xrotation Zrotation
       JOINT RightElbow
       {
        OFFSET -30.272209 0.000000 0.000000
        CHANNELS 3 Yrotation Xrotation Zrotation
        JOINT RightWrist
        {
         OFFSET -24.478199 0.000000 0.000000
         CHANNELS 3 Yrotation Xrotation Zrotation
         End Site
         {
          OFFSET -18.090752 0.000000 0.000000
         }
        }
       }
      }
     }
     JOINT LeftCollar
     {
      OFFSET 2.923010 9.499495 0.000000
      CHANNELS 3 Yrotation Xrotation Zrotation
      JOINT LeftShoulder
      {
       OFFSET 13.795216 0.000000 0.000000
       CHANNELS 3 Yrotation Xrotation Zrotation
       JOINT LeftElbow
       {
        OFFSET 30.272209 0.000000 0.000000
        CHANNELS 3 Yrotation Xrotation Zrotation
        JOINT LeftWrist
        {
         OFFSET 24.478199 0.000000 0.000000
         CHANNELS 3 Yrotation Xrotation Zrotation
         End Site
         {
          OFFSET 18.090752 0.000000 0.000000
         }
        }
       }
      }
     }
    }
   }
  }
 }
 JOINT RightHip
 {
  OFFSET -7.826875 0.019532 0.001973
  CHANNELS 3 Yrotation Xrotation Zrotation
  JOINT RightKnee
  {
   OFFSET 0.000000 -40.546152 -0.001885
   CHANNELS 3 Yrotation Xrotation Zrotation
   JOINT RightAnkle
   {
    OFFSET 0.000000 -39.417092 -0.003189
    CHANNELS 3 Yrotation Xrotation Zrotation
    JOINT RightToe
    {
     OFFSET 0.000000 -7.579396 17.243563
     CHANNELS 3 Yrotation Xrotation Zrotation
     End Site
     {
      OFFSET 0.000000 -1.500329 6.694466
     }
    }
   }
  }
 }
 JOINT LeftHip
 {
  OFFSET 7.826875 0.019532 0.001973
  CHANNELS 3 Yrotation Xrotation Zrotation
  JOINT LeftKnee
  {
   OFFSET 0.000000 -40.546152 -0.001885
   CHANNELS 3 Yrotation Xrotation Zrotation
   JOINT LeftAnkle
   {
    OFFSET 0.000000 -39.417092 -0.003189
    CHANNELS 3 Yrotation Xrotation Zrotation
    JOINT LeftToe
    {
     OFFSET 0.000000 -7.579396 17.243563
     CHANNELS 3 Yrotation Xrotation Zrotation
     End Site
     {
      OFFSET 0.000000 -1.500329 6.694466
     }
    }
   }
  }
 }
}
MOTION
Frames: 17
Frame Time: 0.008333
0.000000 87.345680 0.000000 0.000000 -5.767889 0.000000 0.000000 11.653876 0.000000 0.000000 -5.885988 0.000000 0.000000 -0.000000 0.000000 0.000000 -0.000000 0.000000 0.000000 12.528808 0.000000 0.000000 0.711711 0.000000 0.000000 -0.000000 0.000000 0.000000 -0.000000 0.000000 2.309063 -0.000000 0.000000 -2.309063 -0.000000 -0.000000 0.000000 -0.000000 0.000000 0.000000 0.000000 0.000000 -2.309063 0.000000 0.000000 2.309063 -0.000000 0.000000 0.000000 8.520374 0.000000 0.000000 1.905768 0.000000 -0.000000 -4.658254 0.000000 0.000000 -0.000000 0.000000 0.000000 8.520374 0.000000 0.000000 1.905768 0.000000 -0.000000 -4.658254 0.000000 0.000000 -0.000000 0.000000
-9.205734 87.857885 21.318808 -46.028052 -9.235372 -0.084434 3.370891 3.876138 1.343089 1.932129 2.206780 0.489298 2.418551 2.755794 0.623355 1.932131 2.206783 0.489299 -2.890720 29.530357 -1.178294 -2.938288 7.214764 -0.652745 -7.881157 0.942262 -0.559479 -0.904459 -2.911926 91.213242 3.860248 -8.267427 2.771490 1.405063 -2.997239 -2.223828 -3.756120 0.071386 -3.390077 -0.811067 -3.547211 -90.196702 3.095161 4.207370 3.180645 -6.416141 3.351020 5.748881 -7.859395 9.213353 -11.972733 -8.477716 1.286047 0.603919 -2.112853 -0.849911 7.675119 -0.221888 1.174219 -0.384909 0.424106 7.765438 11.299446 5.626206 7.438225 1.597875 5.329952 -4.610731 -10.837992 -0.172216 -0.930249 -0.235259
-9.315457 87.799734 21.118476 -45.865754 -9.095495 -0.190578 3.322823 3.869881 1.512739 1.907925 2.200228 0.528842 2.388516 2.747432 0.672612 1.907927 2.200231 0.528843 -2.815441 29.605522 -1.216149 -2.847090 7.311868 -0.712207 -7.899808 0.940128 -0.608947 -1.263914 -2.744040 91.212892 3.993162 -8.519846 2.862750 1.650834 -2.976538 -2.310224 -3.756010 0.027986 -3.387580 -1.120360 -3.642303 -90.314367 2.873259 4.283272 3.009625 -6.487387 3.439743 5.671365 -7.804661 9.304568 -11.751493 -8.614341 0.993296 0.795940 -2.204579 -1.048645 7.451751 -0.227608 1.369003 -0.355602 0.343950 7.066578 11.529091 5.445883 8.356817 1.771713 5.321828 -4.785634 -11.103682 -0.157670 -1.036104 -0.224437
-9.438151 87.735497 20.891657 -45.687716 -8.935220 -0.289932 3.273517 3.857635 1.674476 1.881650 2.190412 0.566945 2.355874 2.735006 0.720040 1.881651 2.190414 0.566947 -2.750672 29.676379 -1.249751 -2.768465 7.403823 -0.764576 -7.919647 0.934800 -0.652902 -1.617806 -2.598263 91.178204 4.116913 -8.510104 2.932971 1.881334 -2.884226 -2.427592 -3.763625 -0.029186 -3.395098 -1.380935 -3.737667 -90.378820 2.655189 4.383913 2.802721 -6.559599 3.555939 5.646419 -7.721813 9.380545 -11.514576 -8.715543 0.698337 0.990616 -2.341691 -1.256102 7.209740 -0.240358 1.564647 -0.331413 0.266429 6.320386 11.790293 5.288354 9.300348 1.922664 5.268534 -4.938435 -11.375173 -0.153320 -1.147350 -0.217131
-9.601026 87.675819 20.672436 -45.686032 -9.006417 -0.382434 3.420518 4.079383 1.876085 1.852753 2.180238 0.603113 2.319942 2.722152 0.765031 1.852755 2.180240 0.603114 -2.697863 29.740074 -1.281000 -2.703559 7.486830 -0.811610 -7.942859 0.919739 -0.690619 -1.926117 -2.471142 91.104468 4.226025 -8.279819 2.971090 2.067353 -2.742073 -2.562022 -3.784360 -0.095805 -3.416233 -1.589358 -3.839324 -90.395811 2.442652 4.500975 2.560038 -6.638535 3.672958 5.658603 -7.423182 9.705160 -11.265097 -8.798900 0.400845 1.179406 -2.507866 -1.500521 6.955156 -0.259264 1.780298 -0.309592 0.372811 5.706422 12.055334 5.178023 10.532660 2.108558 5.298667 -5.196275 -11.627815 -0.269144 -1.304385 -0.258319
-9.747684 87.614424 20.426475 -45.520309 -8.907345 -0.492209 3.422588 4.132210 2.067189 1.820605 2.170839 0.636994 2.279930 2.710290 0.807151 1.820606 2.170840 0.636996 -2.656037 29.796355 -1.313225 -2.650537 7.560466 -0.857218 -7.969575 0.891149 -0.723521 -2.162731 -2.354501 90.993749 4.317223 -7.875116 2.970163 2.190157 -2.577635 -2.697145 -3.819905 -0.161837 -3.453960 -1.749744 -3.953947 -90.372661 2.234022 4.626896 2.285669 -6.712652 3.772493 5.694150 -7.259179 9.855427 -10.984251 -8.896187 0.102991 1.352520 -2.665793 -1.731544 6.695798 -0.277411 1.988374 -0.288882 0.353165 4.975126 12.375558 5.089845 11.536799 2.226555 5.230353 -5.262384 -11.904097 -0.294281 -1.467883 -0.250032
-9.890185 87.559318 20.180247 -45.326897 -8.795629 -0.582569 3.407590 4.168824 2.240074 1.786646 2.163153 0.669351 2.237648 2.700586 0.847364 1.786647 2.163155 0.669353 -2.622969 29.846081 -1.346484 -2.606928 7.625760 -0.901968 -7.995170 0.850493 -0.751483 -2.307011 -2.244721 90.845361 4.381486 -7.353374 2.930166 2.244784 -2.415803 -2.815834 -3.866301 -0.221247 -3.509267 -1.878776 -4.082369 -90.320415 2.024648 4.759113 1.984583 -6.772784 3.830010 5.746728 -7.133581 9.981926 -10.715576 -9.032645 -0.196887 1.501313 -2.776493 -1.916261 6.444133 -0.289995 2.161018 -0.270133 0.319561 4.231809 12.679784 5.033627 12.527813 2.331677 5.161662 -5.301434 -12.195906 -0.301037 -1.618584 -0.221724
-10.030734 87.515066 19.942401 -45.147495 -8.715187 -0.654506 3.405516 4.229365 2.400527 1.752670 2.158268 0.701189 2.195346 2.694392 0.886943 1.752671 2.158269 0.701190 -2.594628 29.888804 -1.378438 -2.568771 7.681952 -0.944163 -8.007885 0.799204 -0.774535 -2.351448 -2.141672 90.654969 4.409794 -6.775298 2.860106 2.232735 -2.265875 -2.905229 -3.914699 -0.275421 -3.580623 -1.998277 -4.218760 -90.253457 1.815926 4.883684 1.671513 -6.823888 3.832669 5.804725 -7.036494 10.125294 -10.463052 -9.206438 -0.496515 1.625592 -2.824630 -2.072405 6.207555 -0.300528 2.315486 -0.257395 0.297865 3.530749 12.969654 5.003891 13.499804 2.430703 5.106048 -5.292689 -12.490549 -0.322065 -1.775286 -0.192917
-10.155240 87.483027 19.712227 -44.950644 -8.603513 -0.681182 3.371246 4.256834 2.512318 1.720722 2.155651 0.733229 2.155586 2.691033 0.926799 1.720723 2.155652 0.733230 -2.568508 29.924885 -1.407685 -2.533601 7.729414 -0.982809 -8.001969 0.738139 -0.797735 -2.303561 -2.045253 90.420494 4.395603 -6.188541 2.777190 2.162585 -2.132780 -2.964072 -3.963454 -0.326224 -3.667751 -2.116128 -4.359446 -90.187616 1.613610 4.979567 1.362894 -6.880180 3.799634 5.856256 -7.022654 10.206624 -10.261016 -9.391594 -0.788742 1.727179 -2.826568 -2.168354 5.990735 -0.304839 2.426470 -0.249435 0.249803 2.816851 13.217459 4.993025 14.448013 2.529021 4.981515 -5.286318 -12.786837 -0.341521 -1.904571 -0.166028
-10.263141 87.466171 19.492879 -44.763033 -8.475688 -0.660479 3.323532 4.267888 2.578161 1.692943 2.154976 0.765701 2.121045 2.690097 0.967229 1.692944 2.154978 0.765702 -2.543380 29.956176 -1.432210 -2.500532 7.770549 -1.015955 -7.975836 0.667494 -0.821848 -2.175760 -1.956688 90.139687 4.329735 -5.638368 2.699257 2.051198 -2.017125 -2.989204 -4.007741 -0.377328 -3.769199 -2.240691 -4.500222 -90.133282 1.421516 5.033409 1.070329 -6.948965 3.753595 5.896974 -7.066160 10.237714 -10.114531 -9.558167 -1.066646 1.810758 -2.809464 -2.213792 5.793295 -0.304434 2.500402 -0.244642 0.204044 2.108696 13.419779 4.988841 15.366853 2.628017 4.806872 -5.278907 -13.079869 -0.365441 -2.001876 -0.143785
-10.353275 87.466552 19.285183 -44.593578 -8.333819 -0.595834 3.264172 4.259816 2.599999 1.671056 2.157476 0.798566 2.093880 2.693118 1.008200 1.671057 2.157478 0.798567 -2.517688 29.984893 -1.448476 -2.468659 7.808234 -1.040038 -7.928111 0.590154 -0.845400 -1.985476 -1.877513 89.815816 4.207664 -5.157295 2.639861 1.913471 -1.912785 -2.982835 -4.041283 -0.431009 -3.877934 -2.379217 -4.636428 -90.100995 1.240389 5.046945 0.808473 -7.026015 3.700346 5.926747 -7.143637 10.217436 -10.020440 -9.689026 -1.320282 1.876649 -2.794224 -2.206754 5.613572 -0.299036 2.530942 -0.238742 0.165788 1.412786 13.565537 4.983760 16.249979 2.729002 4.651657 -5.277192 -13.385986 -0.371637 -2.042770 -0.108117
-10.423022 87.485022 19.088645 -44.436505 -8.165378 -0.488108 3.182968 4.214238 2.576162 1.656755 2.164070 0.830802 2.076208 2.701245 1.048448 1.656757 2.164072 0.830802 -2.492359 30.013619 -1.453232 -2.439777 7.845909 -1.051259 -7.865424 0.512504 -0.869678 -1.748377 -1.806437 89.459692 4.035084 -4.747481 2.601861 1.754303 -1.818085 -2.948601 -4.068758 -0.483315 -3.987090 -2.526377 -4.770070 -90.098940 1.069410 5.030872 0.588886 -7.107490 3.643437 5.945723 -7.242155 10.128007 -9.976510 -9.783514 -1.538071 1.922368 -2.790823 -2.132268 5.449931 -0.286078 2.499492 -0.227118 0.121565 0.720883 13.644544 4.982411 17.094747 2.833118 4.541581 -5.300149 -13.719814 -0.336620 -2.006899 -0.044071
-10.482463 87.523147 18.908483 -44.339808 -8.032369 -0.356718 3.128456 4.187049 2.535944 1.651165 2.175376 0.861294 2.069428 2.715252 1.086588 1.651167 2.175377 0.861293 -2.469773 30.043445 -1.444479 -2.417000 7.885074 -1.046866 -7.795742 0.438698 -0.894900 -1.471719 -1.743606 89.082635 3.816531 -4.407423 2.581269 1.573284 -1.733308 -2.880205 -4.090946 -0.529641 -4.087119 -2.674809 -4.903872 -90.133194 0.912251 5.006036 0.423626 -7.192715 3.587691 5.950923 -7.297851 10.038054 -9.962943 -9.846844 -1.711778 1.952494 -2.801190 -2.027514 5.298415 -0.268525 2.431973 -0.210066 0.108086 0.100701 13.681248 4.991919 17.894673 2.934559 4.504042 -5.315327 -14.058287 -0.299366 -1.926054 0.027037
-10.525891 87.578782 18.742279 -44.273167 -7.891701 -0.192761 3.067906 4.137064 2.462343 1.654034 2.191457 0.890088 2.073230 2.735214 1.122678 1.654036 2.191458 0.890087 -2.451318 30.072558 -1.422736 -2.401731 7.923347 -1.027105 -7.722357 0.369309 -0.921092 -1.163502 -1.691547 88.693449 3.553815 -4.138039 2.567351 1.371534 -1.662673 -2.773754 -4.103706 -0.567277 -4.169582 -2.816059 -5.041543 -90.211360 0.774741 4.999338 0.314356 -7.286907 3.530928 5.950648 -7.339151 9.895287 -9.991906 -9.886686 -1.831766 1.969198 -2.819057 -1.860148 5.156954 -0.241954 2.295953 -0.185316 0.082374 -0.482567 13.663652 5.014193 18.636750 3.024508 4.505533 -5.343717 -14.387655 -0.242203 -1.792363 0.101343
-10.559807 87.650429 18.592366 -44.258924 -7.768759 -0.008396 3.027347 4.095283 2.373114 1.664115 2.210182 0.916502 2.086044 2.758473 1.155850 1.664117 2.210183 0.916501 -2.436888 30.098950 -1.388545 -2.393706 7.958050 -0.992579 -7.647162 0.304831 -0.948678 -0.839184 -1.649949 88.299252 3.253732 -3.926856 2.548180 1.153731 -1.615604 -2.632943 -4.106480 -0.593931 -4.232368 -2.947729 -5.186626 -90.330961 0.660244 5.017859 0.247400 -7.398101 3.475208 5.960101 -7.352559 9.728900 -10.053903 -9.910959 -1.896350 1.978043 -2.826428 -1.652526 5.024575 -0.210509 2.108766 -0.156355 0.061349 -1.000596 13.606701 5.046204 19.313187 3.095951 4.560145 -5.363072 -14.681130 -0.180273 -1.629558 0.160355
-10.588966 87.735402 18.458890 -44.299455 -7.669472 0.182693 3.015408 4.075277 2.284737 1.680530 2.228391 0.939035 2.106754 2.781086 1.184206 1.680531 2.228391 0.939033 -2.425661 30.121325 -1.341883 -2.392000 7.987440 -0.943436 -7.573163 0.247245 -0.976321 -0.512945 -1.616227 87.909005 2.926168 -3.767583 2.519416 0.927732 -1.596234 -2.467754 -4.100989 -0.609787 -4.272113 -3.074584 -5.336883 -90.486275 0.570000 5.058017 0.214676 -7.527587 3.427000 5.982062 -7.354226 9.555422 -10.137143 -9.922186 -1.913254 1.984677 -2.807338 -1.465475 4.904482 -0.182257 1.927526 -0.131120 0.049025 -1.446779 13.527505 5.078759 19.917718 3.140159 4.678843 -5.367635 -14.919970 -0.129338 -1.445079 0.193385
-10.612279 87.830028 18.340940 -44.377049 -7.570321 0.386784 3.018634 4.059270 2.187125 1.702036 2.244541 0.957083 2.133799 2.801131 1.206978 1.702037 2.244541 0.957081 -2.416210 30.138308 -1.284272 -2.394667 8.009659 -0.881677 -7.503731 0.194554 -1.005185 -0.193301 -1.586011 87.533567 2.580705 -3.670559 2.479488 0.697689 -1.605763 -2.291226 -4.087970 -0.619630 -4.288808 -3.200144 -5.487032 -90.671939 0.496158 5.117806 0.206376 -7.661847 3.385517 6.017633 -7.375785 9.349794 -10.246536 -9.917160 -1.890418 1.984880 -2.759542 -1.265534 4.799999 -0.154109 1.725978 -0.110173 0.032385 -1.844518 13.421746 5.103608 20.445887 3.151723 4.837846 -5.373143 -15.105718 -0.077640 -1.235501 0.208859
